<svg width="670" height="176" viewBox="0 0 670 176" fill="none" xmlns="http://www.w3.org/2000/svg">
<path d="M205.863 175.92C193.383 175.92 182.023 173.04 171.783 167.28C161.703 161.52 153.703 153.76 147.783 144C141.863 134.24 138.903 123.28 138.903 111.12C138.903 98.96 141.703 88 147.303 78.24C153.063 68.48 160.823 60.72 170.583 54.96C180.343 49.2 191.223 46.32 203.223 46.32C215.223 46.32 225.863 49.28 235.143 55.2C244.423 61.12 251.703 69.12 256.983 79.2C262.423 89.28 265.143 100.72 265.143 113.52V117.16C265.143 119.921 262.904 122.16 260.143 122.16H179.161C175.83 122.16 173.43 125.373 174.886 128.369C176.131 130.932 177.657 133.342 179.463 135.6C182.823 139.6 186.903 142.72 191.703 144.96C196.663 147.2 201.943 148.32 207.543 148.32C213.143 148.32 218.263 147.44 222.903 145.68C226.105 144.506 228.987 143.011 231.549 141.196C233.69 139.679 236.646 139.61 238.586 141.377L252.448 154.007C254.709 156.067 254.613 159.666 252.127 161.448C245.9 165.909 239.518 169.293 232.983 171.6C224.983 174.48 215.943 175.92 205.863 175.92ZM172.023 98.64H226.488C229.694 98.64 232.094 95.6382 230.811 92.7005C229.696 90.1467 228.26 87.8065 226.503 85.68C223.623 81.84 220.103 78.88 215.943 76.8C211.943 74.56 207.463 73.44 202.503 73.44C197.383 73.44 192.743 74.48 188.583 76.56C184.423 78.64 180.903 81.6 178.023 85.44C175.303 89.12 173.303 93.52 172.023 98.64Z" fill="black"/>
<path d="M285.288 173.52V48.48H308.168C313.691 48.48 318.168 52.9572 318.168 58.48V62.4C322.168 56.96 326.968 52.8 332.568 49.92C338.168 47.04 344.488 45.6 351.528 45.6C354.705 45.6836 357.468 45.9857 359.815 46.5064C363.299 47.2791 365.208 50.6772 365.208 54.2455V72.5694C365.208 74.7643 362.906 76.246 360.792 75.6549C359.667 75.34 358.498 75.0818 357.288 74.88C354.408 74.24 351.448 73.92 348.408 73.92C342.008 73.92 336.168 75.52 330.888 78.72C325.608 81.92 321.368 86.48 318.168 92.4V163.52C318.168 169.043 313.691 173.52 308.168 173.52H285.288Z" fill="black"/>
<path d="M436.175 175.2C424.335 175.2 413.615 172.32 404.015 166.56C394.415 160.8 386.735 153.12 380.975 143.52C375.375 133.76 372.575 122.88 372.575 110.88C372.575 98.88 375.375 88.08 380.975 78.48C386.735 68.72 394.495 61.04 404.255 55.44C414.015 49.68 424.975 46.8 437.135 46.8C443.375 46.8 449.375 47.68 455.135 49.44C460.895 51.04 466.255 53.44 471.215 56.64V9.75056C471.215 7.3086 472.979 5.22387 475.387 4.81956L498.267 0.978395C501.316 0.466449 504.095 2.81729 504.095 5.90939V168.52C504.095 171.281 501.856 173.52 499.095 173.52H471.695V163.2C461.455 171.2 449.615 175.2 436.175 175.2ZM441.455 147.12C447.535 147.12 453.055 146.16 458.015 144.24C463.135 142.16 467.535 139.12 471.215 135.12V88.4711C471.215 87.145 470.699 85.8612 469.711 84.9765C466.354 81.9693 462.455 79.5638 458.015 77.76C452.895 75.68 447.375 74.64 441.455 74.64C434.575 74.64 428.335 76.24 422.735 79.44C417.295 82.48 412.975 86.8 409.775 92.4C406.575 97.84 404.975 104 404.975 110.88C404.975 117.76 406.575 123.92 409.775 129.36C412.975 134.8 417.295 139.12 422.735 142.32C428.335 145.52 434.575 147.12 441.455 147.12Z" fill="black"/>
<path d="M590.941 175.92C578.461 175.92 567.101 173.04 556.861 167.28C546.781 161.52 538.781 153.76 532.861 144C526.941 134.24 523.981 123.28 523.981 111.12C523.981 98.96 526.781 88 532.381 78.24C538.141 68.48 545.901 60.72 555.661 54.96C565.421 49.2 576.301 46.32 588.301 46.32C600.301 46.32 610.941 49.28 620.221 55.2C629.501 61.12 636.781 69.12 642.061 79.2C647.501 89.28 650.221 100.72 650.221 113.52V117.16C650.221 119.921 647.983 122.16 645.221 122.16H564.239C560.909 122.16 558.509 125.373 559.964 128.369C561.21 130.932 562.735 133.342 564.541 135.6C567.901 139.6 571.981 142.72 576.781 144.96C581.741 147.2 587.021 148.32 592.621 148.32C598.221 148.32 603.341 147.44 607.981 145.68C611.184 144.506 614.066 143.011 616.627 141.196C618.768 139.679 621.725 139.61 623.664 141.377L637.527 154.007C639.787 156.067 639.691 159.666 637.205 161.448C630.978 165.909 624.597 169.293 618.061 171.6C610.061 174.48 601.021 175.92 590.941 175.92ZM557.101 98.64H611.566C614.772 98.64 617.173 95.6382 615.89 92.7005C614.774 90.1466 613.338 87.8065 611.581 85.68C608.701 81.84 605.181 78.88 601.021 76.8C597.021 74.56 592.541 73.44 587.581 73.44C582.461 73.44 577.821 74.48 573.661 76.56C569.501 78.64 565.981 81.6 563.101 85.44C560.381 89.12 558.381 93.52 557.101 98.64Z" fill="black"/>
<path d="M652.136 41.692C649 41.692 646.116 40.936 643.484 39.424C640.908 37.856 638.836 35.756 637.268 33.124C635.756 30.492 635 27.552 635 24.304C635 21.056 635.756 18.144 637.268 15.568C638.836 12.936 640.908 10.864 643.484 9.352C646.116 7.784 649 7 652.136 7C655.384 7 658.296 7.784 660.872 9.352C663.448 10.864 665.492 12.936 667.004 15.568C668.572 18.2 669.356 21.112 669.356 24.304C669.356 27.552 668.572 30.492 667.004 33.124C665.492 35.756 663.448 37.856 660.872 39.424C658.296 40.936 655.384 41.692 652.136 41.692ZM652.136 37.912C654.712 37.912 656.98 37.352 658.94 36.232C660.9 35.056 662.44 33.432 663.56 31.36C664.736 29.288 665.324 26.936 665.324 24.304C665.324 21.672 664.736 19.348 663.56 17.332C662.44 15.26 660.9 13.636 658.94 12.46C656.98 11.284 654.712 10.696 652.136 10.696C649.616 10.696 647.348 11.284 645.332 12.46C643.372 13.636 641.832 15.26 640.712 17.332C639.592 19.348 639.032 21.672 639.032 24.304C639.032 26.936 639.592 29.288 640.712 31.36C641.832 33.376 643.372 34.972 645.332 36.148C647.348 37.324 649.616 37.912 652.136 37.912ZM646.088 32.116V17.124C646.088 16.6822 646.446 16.324 646.888 16.324H653.228C654.908 16.324 656.224 16.772 657.176 17.668C658.128 18.564 658.604 19.768 658.604 21.28C658.604 22.232 658.352 23.1 657.848 23.884C657.4 24.668 656.728 25.284 655.832 25.732L658.833 30.9152C659.142 31.4485 658.757 32.116 658.14 32.116H655.641C655.345 32.116 655.073 31.9524 654.935 31.6908L652.445 26.9972C652.307 26.7356 652.035 26.572 651.739 26.572H650.036V31.316C650.036 31.7578 649.678 32.116 649.236 32.116H646.088ZM652.472 19.432H650.036V23.716H652.388C653.9 23.716 654.656 22.988 654.656 21.532C654.656 20.86 654.46 20.356 654.068 20.02C653.732 19.628 653.2 19.432 652.472 19.432Z" fill="black"/>
<path d="M28.6046 48H10.0108C2.83359 48 -2.00669 55.3368 0.817479 61.9349L47.5942 171.22C48.0666 172.324 49.1516 173.04 50.3522 173.04H78.2247C80.3731 173.04 81.8251 170.848 80.9871 168.87L60.2939 120.023L31.3783 49.8569C30.9152 48.7333 29.8199 48 28.6046 48Z" fill="#205C38"/>
<path d="M76.6046 48H58.0108C50.8336 48 45.9933 55.3368 48.8175 61.9349L85.0749 146.644C86.803 150.681 92.524 150.689 94.2629 146.656L106.215 118.939C106.748 117.701 106.76 116.3 106.246 115.054L79.3783 49.8569C78.9152 48.7333 77.8199 48 76.6046 48Z" fill="#43B872"/>
<path d="M131.301 56.9483C131.814 58.1946 131.803 59.5954 131.269 60.8332L118.853 89.6275C117.114 93.6604 111.393 93.6527 109.665 89.6152L97.8175 61.9349C94.9933 55.3368 99.8336 48 107.011 48H125.605C126.82 48 127.915 48.7333 128.378 49.8569L131.301 56.9483Z" fill="#9CCEB0"/>
</svg>
