<svg width="457" height="147" viewBox="0 0 457 147" fill="none" xmlns="http://www.w3.org/2000/svg">
<path d="M0 144.6V13.0611C0 8.17719 3.52782 4.00774 8.34434 3.19913L27.4 0V48.8C35.6667 42.2667 45.4 39 56.6 39C66.4667 39 75.4 41.4 83.4 46.2C91.4 51 97.7333 57.4667 102.4 65.6C107.2 73.6 109.6 82.6 109.6 92.6C109.6 102.6 107.2 111.667 102.4 119.8C97.6 127.8 91.1333 134.2 83 139C74.8667 143.667 65.8 146 55.8 146C50.6 146 45.5333 145.267 40.6 143.8C35.6667 142.333 31.1333 140.2 27 137.4V137.4C27 141.376 23.7765 144.6 19.8 144.6H0ZM52.2 122.8C57.9333 122.8 63.0667 121.467 67.6 118.8C72.2667 116.133 75.9333 112.533 78.6 108C81.2667 103.467 82.6 98.3333 82.6 92.6C82.6 86.8667 81.2667 81.7333 78.6 77.2C75.9333 72.5333 72.2667 68.9333 67.6 66.4C63.0667 63.7333 57.9333 62.4 52.2 62.4C47.1333 62.4 42.4667 63.2667 38.2 65C34.0667 66.6 30.4667 69.0667 27.4 72.4V108.987C27.4 111.563 28.3457 114.101 30.3669 115.697C32.6648 117.511 35.2758 119.012 38.2 120.2C42.6 121.933 47.2667 122.8 52.2 122.8Z" fill="#2C2C2C"/>
<path d="M126.172 144.6V13.0611C126.172 8.1772 129.7 4.00774 134.516 3.19913L153.572 0V134.6C153.572 140.123 149.095 144.6 143.572 144.6H126.172Z" fill="#2C2C2C"/>
<path d="M215.4 146.6C207.4 146.6 200.267 144.867 194 141.4C187.867 137.8 183 132.867 179.4 126.6C175.933 120.333 174.2 113.133 174.2 105V50.4C174.2 44.8772 178.677 40.4 184.2 40.4H201.6V101C201.6 107.667 203.533 113 207.4 117C211.4 121 216.733 123 223.4 123C227.933 123 232 122.133 235.6 120.4C239.333 118.533 242.4 115.933 244.8 112.6V50.4C244.8 44.8772 249.277 40.4 254.8 40.4H272.2V144.6H253.2C248.561 144.6 244.8 140.839 244.8 136.2V136.2C236.8 143.133 227 146.6 215.4 146.6Z" fill="#2C2C2C"/>
<path d="M344.555 146.6C334.155 146.6 324.688 144.2 316.155 139.4C307.755 134.6 301.088 128.133 296.155 120C291.221 111.867 288.755 102.733 288.755 92.6C288.755 82.4667 291.088 73.3333 295.755 65.2C300.555 57.0667 307.021 50.6 315.155 45.8C323.288 41 332.355 38.6 342.355 38.6C352.355 38.6 361.221 41.0667 368.955 46C376.688 50.9333 382.755 57.6 387.155 66C391.688 74.4 393.955 83.9333 393.955 94.6V94.6C393.955 98.5765 390.731 101.8 386.755 101.8H316.755C317.955 105.933 319.888 109.667 322.555 113C325.355 116.333 328.755 118.933 332.755 120.8C336.888 122.667 341.288 123.6 345.955 123.6C350.621 123.6 354.888 122.867 358.755 121.4C359.616 121.084 360.45 120.74 361.256 120.369C366.022 118.171 371.961 117.939 375.841 121.474L386.955 131.6C380.555 136.8 373.955 140.6 367.155 143C360.488 145.4 352.955 146.6 344.555 146.6ZM316.355 82.2H366.955C366.021 78.0667 364.288 74.4667 361.755 71.4C359.355 68.2 356.421 65.7333 352.955 64C349.621 62.1333 345.888 61.2 341.755 61.2C337.488 61.2 333.621 62.0667 330.155 63.8C326.688 65.5333 323.755 68 321.355 71.2C319.088 74.2667 317.421 77.9333 316.355 82.2Z" fill="#2C2C2C"/>
<circle cx="431.5" cy="121.5" r="25.5" fill="#2E1EE7"/>
</svg>
